<svg width="65" height="74" viewBox="0 0 65 74" fill="none" xmlns="http://www.w3.org/2000/svg">
<path d="M33.22 14.4506C34.2445 13.4178 31.5281 11.8338 30.3543 11.6069C30.3543 11.6069 31.9213 15.759 33.22 14.4506Z" fill="#60E2AD"/>
<path d="M30.6484 11.8352C30.6484 11.8352 32.524 13.0294 32.9932 14.3949" stroke="#4CBF93" stroke-width="1.5" stroke-miterlimit="10" stroke-linecap="round" stroke-linejoin="round"/>
<path d="M34.4583 10.925C34.576 14.0526 31.5855 15.2469 32.2886 17.5797" stroke="#4CBF93" stroke-width="1.5" stroke-miterlimit="10" stroke-linecap="round" stroke-linejoin="round"/>
<path d="M33.451 10.3613C33.451 10.3613 31.8309 8.66874 32.4537 7.98393C33.0765 7.29912 33.9905 9.79756 33.9905 9.79756C33.9905 9.79756 33.616 7.78349 34.4469 7.58167C35.2777 7.37984 34.8616 9.87829 34.8616 9.87829C34.8616 9.87829 35.734 7.82386 36.3568 8.14539C36.9796 8.46831 35.4844 10.3613 35.4844 10.3613C35.4844 10.3613 34.322 11.3286 33.451 10.3613Z" fill="#FBB03B"/>
<path d="M36.882 8.72022C36.364 8.46968 35.1974 10.2165 35.1974 10.2165C35.1974 10.2165 35.9751 7.99643 35.2146 7.90735C34.454 7.81827 34.4368 10.1274 34.4368 10.1274C34.4368 10.1274 34.2603 7.55381 33.4223 7.86003C32.5857 8.16624 33.8714 10.2471 33.8714 10.2471C33.8714 10.2471 32.3446 8.27063 31.7778 9.1016C31.3573 9.71681 33.0018 10.6438 33.8829 11.0823C34.2417 11.2604 34.6707 11.2423 35.0094 11.0322C36.1143 10.3446 37.3183 8.93039 36.882 8.72022Z" fill="#F7653E"/>
<path d="M37.0628 17.5697C37.0628 17.5697 43.9393 14.8221 47.9587 17.1076" stroke="#4CBF93" stroke-width="1.5" stroke-miterlimit="10" stroke-linecap="round" stroke-linejoin="round"/>
<path d="M40.7737 13.4775C40.7737 13.4775 38.8164 14.9112 39.0876 16.9294C40.8684 15.8549 40.7737 13.4775 40.7737 13.4775Z" fill="#4CBF93"/>
<path d="M42.1986 19.2538C42.1986 19.2538 41.1554 17.1006 39.0632 16.9419C39.7807 18.8544 42.1986 19.2538 42.1986 19.2538Z" fill="#4CBF93"/>
<path d="M43.0338 12.9417C43.0338 12.9417 41.0765 14.3753 41.3477 16.3936C43.1299 15.3204 43.0338 12.9417 43.0338 12.9417Z" fill="#4CBF93"/>
<path d="M44.4587 18.7194C44.4587 18.7194 43.4155 16.5661 41.3233 16.4075C42.0408 18.3199 44.4587 18.7194 44.4587 18.7194Z" fill="#4CBF93"/>
<path d="M46.1147 13.1477C46.1147 13.1477 43.8833 14.1373 43.6996 16.1639C45.6785 15.4889 46.1147 13.1477 46.1147 13.1477Z" fill="#4CBF93"/>
<path d="M46.2195 19.0867C46.2195 19.0867 45.6799 16.7651 43.6738 16.1721C43.9464 18.189 46.2195 19.0867 46.2195 19.0867Z" fill="#4CBF93"/>
<path d="M49.1253 13.9619C49.1253 13.9619 46.7375 14.5103 46.1491 16.4631C48.2256 16.175 49.1253 13.9619 49.1253 13.9619Z" fill="#4CBF93"/>
<path d="M51.2434 18.8755C51.2434 18.8755 49.9131 16.8767 47.818 16.9895C48.791 18.792 51.2434 18.8755 51.2434 18.8755Z" fill="#4CBF93"/>
<path d="M48.0319 19.8066C48.0319 19.8066 47.9702 17.4279 46.1219 16.4661C45.9841 18.4968 48.0319 19.8066 48.0319 19.8066Z" fill="#4CBF93"/>
<path d="M36.519 14.9642C35.1414 14.4019 36.6108 8.89136 39.343 9.28527C42.0752 9.67917 38.1003 15.61 36.519 14.9642Z" fill="#60E2AD"/>
<path d="M35.3265 16.6374C35.3265 16.6374 37.5278 13.8675 38.7231 10.8735" stroke="#4CBF93" stroke-width="1.5" stroke-miterlimit="10" stroke-linecap="round" stroke-linejoin="round"/>
<path d="M36.9509 11.9438L37.4144 13.5209L39.0517 12.5855" stroke="#4CBF93" stroke-width="1.5" stroke-miterlimit="10" stroke-linecap="round" stroke-linejoin="round"/>
<path d="M29.1833 14.9642C30.5609 14.4019 29.0915 8.89136 26.3592 9.28527C23.627 9.67917 27.6034 15.61 29.1833 14.9642Z" fill="#60E2AD"/>
<path d="M30.3758 16.6374C30.3758 16.6374 28.1745 13.8675 26.9792 10.8735" stroke="#4CBF93" stroke-width="1.5" stroke-miterlimit="10" stroke-linecap="round" stroke-linejoin="round"/>
<path d="M28.7528 11.9438L28.2879 13.5209L26.652 12.5855" stroke="#4CBF93" stroke-width="1.5" stroke-miterlimit="10" stroke-linecap="round" stroke-linejoin="round"/>
<path d="M28.6409 17.5697C28.6409 17.5697 21.7644 14.8221 17.745 17.1076" stroke="#4CBF93" stroke-width="1.5" stroke-miterlimit="10" stroke-linecap="round" stroke-linejoin="round"/>
<path d="M24.93 13.4775C24.93 13.4775 26.8873 14.9112 26.6161 16.9294C24.8338 15.8549 24.93 13.4775 24.93 13.4775Z" fill="#4CBF93"/>
<path d="M23.5051 19.2538C23.5051 19.2538 24.5483 17.1006 26.6405 16.9419C25.923 18.8544 23.5051 19.2538 23.5051 19.2538Z" fill="#4CBF93"/>
<path d="M22.6684 12.9417C22.6684 12.9417 24.6258 14.3753 24.3546 16.3936C22.5737 15.3204 22.6684 12.9417 22.6684 12.9417Z" fill="#4CBF93"/>
<path d="M21.2435 18.7194C21.2435 18.7194 22.2868 16.5661 24.379 16.4075C23.6629 18.3199 21.2435 18.7194 21.2435 18.7194Z" fill="#4CBF93"/>
<path d="M19.5875 13.1477C19.5875 13.1477 21.8189 14.1373 22.0026 16.1639C20.0252 15.4889 19.5875 13.1477 19.5875 13.1477Z" fill="#4CBF93"/>
<path d="M19.4842 19.0867C19.4842 19.0867 20.0238 16.7651 22.0299 16.1721C21.7558 18.189 19.4842 19.0867 19.4842 19.0867Z" fill="#4CBF93"/>
<path d="M16.5769 13.9619C16.5769 13.9619 18.9648 14.5103 19.5531 16.4631C17.4781 16.175 16.5769 13.9619 16.5769 13.9619Z" fill="#4CBF93"/>
<path d="M14.4603 18.8755C14.4603 18.8755 15.7906 16.8767 17.8856 16.9895C16.9113 18.792 14.4603 18.8755 14.4603 18.8755Z" fill="#4CBF93"/>
<path d="M17.6718 19.8066C17.6718 19.8066 17.7335 17.4279 19.5818 16.4661C19.7195 18.4968 17.6718 19.8066 17.6718 19.8066Z" fill="#4CBF93"/>
<path d="M59.1774 45.5399C59.0898 59.6481 47.3703 70.9266 32.854 70.9266C23.8566 70.9238 15.9828 66.6103 11.2445 60.0211C8.18653 55.7717 6.43298 50.5743 6.52769 44.9789C6.75729 31.0321 18.3936 19.9039 32.8468 19.8413C35.7986 19.8524 38.6341 20.3257 41.2759 21.1914C51.7685 24.6225 59.2462 34.2057 59.1774 45.5399Z" fill="#AA66CC"/>
<path d="M26.5515 72.9004C26.5515 72.9004 26.0822 68.1206 22.5622 65.1615C19.0422 62.2023 16.2253 61.7472 15.9914 56.7391C15.5222 54.4634 18.1037 52.6414 19.7468 52.8697C21.3898 53.0979 21.8591 52.6414 21.8591 52.6414C21.8591 52.6414 20.4514 52.4131 19.9821 51.5028C19.5129 50.5925 19.2775 49.454 18.1052 49.454C16.9313 49.454 15.9929 49.6822 14.1159 48.0885C12.2389 46.4948 11.5343 43.7639 10.5959 42.6253C9.65738 41.4868 8.95281 41.9419 8.7189 41.0316L5.66812 40.1213C5.66812 40.1213 8.48357 28.9681 15.7589 25.0972C15.7589 25.0972 18.3405 25.3255 19.5143 25.3255C20.6881 25.3255 21.3913 25.7806 22.5651 25.0972C23.7389 24.4138 23.7389 25.3255 24.6774 24.8689C25.6159 24.4138 26.0851 23.5035 27.9635 24.1855C29.8405 24.8689 30.779 25.0958 30.545 26.4613C30.3097 27.8267 30.7804 29.4204 30.545 30.1038C30.3097 30.7873 29.1373 31.0141 28.6681 30.559C28.1988 30.1038 28.4327 31.4693 27.7296 31.4693C27.025 31.4693 23.0358 33.5182 23.505 34.4285C23.9742 35.3388 25.6173 33.9733 27.025 34.2002C28.4327 34.4285 29.1373 32.6065 31.4835 32.8347C33.8297 33.063 33.5958 33.745 33.5958 34.8836C33.5958 36.0222 34.0651 37.3876 34.0651 37.3876L33.1266 39.2082C33.1266 39.2082 30.5451 38.0697 30.0758 39.2082C29.6066 40.3468 26.7897 41.7122 26.5558 43.306C26.3204 44.8997 26.5558 46.7203 27.2604 48.314C27.9649 49.9077 22.5665 47.1754 22.3326 48.314C22.0973 49.4526 23.5064 52.1835 23.5064 52.1835C23.5064 52.1835 26.088 52.1835 26.7926 53.0938C27.4971 54.0041 28.6695 53.5489 29.8433 55.3695C31.0172 57.1901 33.3634 56.9632 31.7203 59.6941C30.0772 62.425 29.8433 64.247 29.8433 65.3842C29.8433 66.5228 30.0787 67.2048 29.608 67.8882C29.1388 68.5716 31.7203 69.7088 30.7818 71.9859C29.8362 74.2673 26.5515 72.9004 26.5515 72.9004Z" fill="#4BBCBC"/>
<path d="M50.7224 66.5269C50.7224 66.5269 47.907 66.7551 49.0794 63.5677C50.2532 60.3803 50.4871 59.9251 50.4871 58.5597C50.4871 57.1942 49.5486 57.6494 49.7825 56.0556C49.7825 56.0556 50.0178 55.8274 48.3748 55.1453C46.7317 54.4619 46.4978 53.7799 45.324 52.6413C44.1502 51.5028 44.1502 51.0476 44.3855 49.6822C44.6209 48.3167 45.0901 48.3167 45.324 47.1781C45.5593 46.0396 45.324 46.0396 46.4978 45.1293C47.6716 44.219 48.1409 43.7638 49.5486 43.9907C50.9563 44.2176 51.8948 43.7624 53.0686 42.397C54.2424 41.0315 54.7117 41.0315 56.1194 41.4867C57.5271 41.9418 57.5271 39.893 55.6502 39.4378C53.7732 38.9827 54.4764 40.3481 52.5994 38.5275C50.7224 36.7069 49.5486 35.5684 48.3748 37.6172C47.201 39.6661 46.0286 41.0315 43.6809 40.3481C41.3347 39.6647 45.7932 37.389 46.2625 35.5684C46.7317 33.7478 45.5579 33.0643 46.0272 31.0155C46.4964 28.9666 47.9041 29.1949 48.3734 28.0563C48.8426 26.9177 48.8426 23.7317 48.8426 23.7317C48.8426 23.7317 57.5257 27.6012 60.1072 37.6172C62.6902 47.6347 61.0486 59.4714 50.7224 66.5269Z" fill="#4BBCBC"/>
<path d="M31.01 19.4083C31.01 19.4083 31.4792 21.2289 33.8254 22.5957C36.1716 23.9612 34.9993 25.7832 36.407 26.9203C37.8147 28.0589 38.2839 25.0997 39.2224 24.8715C40.1609 24.6432 41.5686 23.0509 41.3347 20.7737C41.1008 18.4966 31.01 19.4083 31.01 19.4083Z" fill="#4BBCBC"/>
<path opacity="0.1" d="M48.8282 67.8171C35.071 76.0891 17.1724 72.0554 8.57972 58.7823C1.963 48.5616 2.84264 35.9858 9.70475 26.8926C6.47173 34.2905 6.89361 43.0525 11.6779 50.4434C19.3995 62.3678 35.4814 65.9937 47.8438 58.5596C57.774 52.5869 62.1636 41.3474 59.5763 30.9054C66.3222 43.9795 61.8637 59.9765 48.8282 67.8171Z" fill="black"/>
<path d="M31.2134 15.7002C31.2092 15.7002 31.2051 15.7016 31.2009 15.703C31.2023 15.6877 31.2023 15.6724 31.2023 15.6584C31.2023 15.6584 31.2051 15.671 31.2134 15.7002Z" fill="#333333"/>
<path d="M26.807 4.15728L25.801 3.64228L26.4066 2.70832C26.4253 2.67909 26.4267 2.64151 26.408 2.61228C26.3908 2.58305 26.3564 2.56356 26.3219 2.56635L25.1854 2.6095L25.2299 1.50712C25.2313 1.47232 25.2127 1.4403 25.1826 1.4236C25.1524 1.4069 25.1137 1.4069 25.0835 1.42499L24.1207 2.01237L23.5897 1.03666C23.5567 0.975412 23.4534 0.975412 23.4204 1.03666L22.8894 2.01237L21.9266 1.42499C21.8964 1.4069 21.8591 1.40551 21.8275 1.4236C21.7974 1.4403 21.7788 1.47371 21.7802 1.50712L21.8247 2.6095L20.6882 2.56635C20.6523 2.56496 20.6193 2.58305 20.6021 2.61228C20.5848 2.64151 20.5848 2.67909 20.6035 2.70832L21.2091 3.64228L20.2031 4.15728C20.1716 4.17399 20.1515 4.20461 20.1515 4.2394C20.1515 4.2742 20.1716 4.30622 20.2031 4.32153L21.2091 4.83653L20.6035 5.77049C20.5848 5.79972 20.5834 5.8373 20.6021 5.86653C20.6193 5.89576 20.6523 5.91385 20.6882 5.91246L21.8247 5.86931L21.7802 6.97169C21.7788 7.00649 21.7974 7.0385 21.8275 7.05521C21.8591 7.07191 21.8964 7.07191 21.9266 7.05382L22.8894 6.46644L23.4204 7.44215C23.4376 7.47277 23.4692 7.49226 23.505 7.49226C23.5409 7.49226 23.5739 7.47277 23.5897 7.44215L24.1207 6.46644L25.0835 7.05382C25.1137 7.07191 25.151 7.0733 25.1826 7.05521C25.2127 7.0385 25.2313 7.0051 25.2299 6.97169L25.1854 5.86931L26.3219 5.91246C26.3578 5.91385 26.3908 5.89576 26.408 5.86653C26.4253 5.8373 26.4253 5.79972 26.4066 5.77049L25.801 4.83653L26.807 4.32153C26.8385 4.30482 26.8586 4.2742 26.8586 4.2394C26.8572 4.206 26.8385 4.17399 26.807 4.15728Z" fill="#FBB03B"/>
<path d="M23.505 5.86919C24.4331 5.86919 25.1854 5.13946 25.1854 4.23928C25.1854 3.33911 24.4331 2.60938 23.505 2.60938C22.577 2.60938 21.8247 3.33911 21.8247 4.23928C21.8247 5.13946 22.577 5.86919 23.505 5.86919Z" fill="#F9D53D"/>
<path d="M62.1076 37.0144C62.1076 37.0144 62.132 35.0602 64.1223 35.0602C64.1223 35.0602 62.1076 35.0365 62.1076 33.106C62.1076 33.106 62.0832 35.0602 60.0929 35.0602C60.0929 35.0616 62.1076 35.0852 62.1076 37.0144Z" fill="white"/>
<path d="M10.4165 17.635C10.4165 17.635 10.4409 15.6808 12.4312 15.6808C12.4312 15.6808 10.4165 15.6571 10.4165 13.7266C10.4165 13.7266 10.3921 15.6808 8.4018 15.6808C8.4018 15.6808 10.4165 15.7044 10.4165 17.635Z" fill="white"/>
<path d="M40.6976 5.76904C40.6976 5.76904 40.722 3.81482 42.7123 3.81482C42.7123 3.81482 40.6976 3.79115 40.6976 1.8606C40.6976 1.8606 40.6732 3.81482 38.6829 3.81482C38.6829 3.81621 40.6976 3.83987 40.6976 5.76904Z" fill="white"/>
<path d="M58.0796 18.9377C58.0796 18.9377 58.104 16.9835 60.0943 16.9835C60.0943 16.9835 58.0796 16.9599 58.0796 15.0293C58.0796 15.0293 58.0552 16.9835 56.0649 16.9835C56.0649 16.9835 58.0796 17.0086 58.0796 18.9377Z" fill="white"/>
<path d="M2.09646 38.1931C2.09646 38.1931 2.12086 36.2389 4.11119 36.2389C4.11119 36.2389 2.09646 36.2152 2.09646 34.2847C2.09646 34.2847 2.07207 36.2389 0.0817413 36.2389C0.0831763 36.2389 2.09646 36.2639 2.09646 38.1931Z" fill="white"/>
<path d="M56.9747 28.9162C56.9747 28.9162 56.989 27.8445 58.0796 27.8445C58.0796 27.8445 56.9747 27.8305 56.9747 26.7727C56.9747 26.7727 56.9603 27.8445 55.8697 27.8445C55.8697 27.8445 56.9747 27.857 56.9747 28.9162Z" fill="white"/>
<path d="M7.22944 29.8781C7.22944 29.8781 7.24235 28.8064 8.33438 28.8064C8.33438 28.8064 7.22944 28.7925 7.22944 27.7346C7.22944 27.7346 7.21509 28.8064 6.1245 28.8064C6.1245 28.8064 7.22944 28.8203 7.22944 29.8781Z" fill="white"/>
<path d="M53.5178 16.0844C53.5178 16.0844 53.5307 15.0127 54.6227 15.0127C54.6227 15.0127 53.5178 14.9988 53.5178 13.9409C53.5178 13.9409 53.5034 15.0127 52.4128 15.0127C52.4128 15.0127 53.5178 15.0266 53.5178 16.0844Z" fill="white"/>
<path d="M4.1112 42.9424C4.1112 42.9424 4.12411 41.8706 5.21614 41.8706C5.21614 41.8706 4.1112 41.8567 4.1112 40.7988C4.1112 40.7988 4.09685 41.8706 3.00626 41.8706C3.00626 41.8706 4.1112 41.8831 4.1112 42.9424Z" fill="white"/>
<path d="M44.374 8.05587C44.374 8.05587 44.3884 6.98411 45.479 6.98411C45.479 6.98411 44.374 6.97019 44.374 5.91235C44.374 5.91235 44.3597 6.98411 43.2691 6.98411C43.2691 6.98411 44.374 6.99803 44.374 8.05587Z" fill="white"/>
<path d="M6.12447 19.6198C6.12447 19.6198 6.13882 18.5481 7.22941 18.5481C7.22941 18.5481 6.12447 18.5342 6.12447 17.4763C6.12447 17.4763 6.11012 18.5481 5.01953 18.5481C5.02097 18.5481 6.12447 18.5606 6.12447 19.6198Z" fill="white"/>
<path d="M11.2947 11.6916H24.1953C24.0876 11.0054 23.4763 10.4792 22.7388 10.4792C22.4216 10.4792 22.1289 10.5753 21.8892 10.7423C21.6596 9.83895 20.8173 9.16945 19.8143 9.16945C19.3177 9.16945 18.8586 9.3337 18.4969 9.61207C18.1597 8.56815 17.1538 7.80957 15.9671 7.80957C14.5034 7.80957 13.3166 8.96067 13.3166 10.3804C13.3166 10.4528 13.3195 10.5238 13.3267 10.5934C13.1487 10.521 12.955 10.4792 12.7498 10.4792C12.0122 10.4792 11.4009 11.0054 11.2947 11.6916Z" fill="white"/>
<path d="M49.53 21.6533H57.5028C57.4368 21.2288 57.0594 20.9044 56.603 20.9044C56.4065 20.9044 56.2256 20.9643 56.0778 21.0673C55.9358 20.5091 55.4149 20.0958 54.795 20.0958C54.4879 20.0958 54.2052 20.1974 53.9799 20.3686C53.7718 19.7227 53.1505 19.2537 52.4158 19.2537C51.5103 19.2537 50.777 19.9649 50.777 20.8432C50.777 20.8877 50.7784 20.9323 50.7827 20.9754C50.6737 20.9309 50.5531 20.9058 50.4269 20.9058C49.9734 20.9044 49.596 21.2302 49.53 21.6533Z" fill="white"/>
<path d="M29.1316 6.83946H37.7616C37.6899 6.38014 37.2809 6.02938 36.7873 6.02938C36.5749 6.02938 36.3783 6.09341 36.219 6.20476C36.0655 5.60068 35.5015 5.15249 34.8314 5.15249C34.4985 5.15249 34.1928 5.26245 33.9503 5.44896C33.725 4.75023 33.052 4.24219 32.257 4.24219C31.2769 4.24219 30.4834 5.01191 30.4834 5.96257C30.4834 6.01129 30.4848 6.05861 30.4906 6.10593C30.3715 6.05722 30.2423 6.02938 30.1046 6.02938C29.6109 6.02799 29.202 6.38014 29.1316 6.83946Z" fill="white"/>
<path d="M58.0796 11.6498H42.2173C42.2173 10.5599 43.1285 9.67606 44.2521 9.67606C44.7988 9.67606 45.2953 9.88485 45.6613 10.2259C45.8923 8.8284 47.1393 7.76221 48.6432 7.76221C50.1413 7.76221 51.3854 8.82005 51.6222 10.2092C51.9852 9.87928 52.4746 9.67606 53.0127 9.67606C53.8306 9.67606 54.5381 10.1451 54.8595 10.8216C55.1035 10.539 55.4679 10.3595 55.8769 10.3595C56.6116 10.3609 57.553 10.9135 58.0796 11.6498Z" fill="white"/>
<path d="M17.8842 22.2461H8.40182C8.40182 21.5947 8.94568 21.0658 9.61869 21.0658C9.94586 21.0658 10.2415 21.191 10.461 21.3943C10.5988 20.5591 11.345 19.9216 12.2447 19.9216C13.1401 19.9216 13.8835 20.5549 14.0255 21.3845C14.2436 21.1869 14.535 21.0658 14.8564 21.0658C15.3457 21.0658 15.7676 21.3455 15.9613 21.7506C16.1077 21.5822 16.3258 21.475 16.5698 21.475C17.0074 21.4764 17.5699 21.8063 17.8842 22.2461Z" fill="white"/>
<path d="M47.6459 52.6368H18.1684L20.2304 41.741C20.7614 38.9308 22.8392 36.63 25.636 35.7489C25.6676 35.7392 25.6977 35.7281 25.7293 35.7197L28.4759 34.8874L29.2952 34.6382C29.6368 36.0009 31.099 37.0267 32.8511 37.0267C34.6176 37.0267 36.0899 35.9856 36.4157 34.6062L37.235 34.8553L40.0404 35.7058L40.0849 35.7197C42.9291 36.5799 45.0471 38.8988 45.5838 41.741L47.6459 52.6368Z" fill="#0071BC"/>
<path d="M39.3 22.9925C39.1149 25.9363 38.3314 29.565 36.8777 31.6793L36.4802 30.6771L35.6408 32.3223L34.8056 31.1629L34.7123 31.0348H30.9957L30.901 31.167L30.0673 32.3209L29.2278 30.6757L28.8303 31.6779C27.381 29.5664 26.596 25.9461 26.4095 23.005C26.3105 21.4795 26.375 20.1335 26.5903 19.2775C26.6247 19.1453 26.662 19.0256 26.7022 18.917H39.0044C39.0259 18.9741 39.046 19.0325 39.0646 19.0965C39.0819 19.1536 39.0991 19.2135 39.1163 19.2761C39.333 20.1321 39.3961 21.4711 39.3 22.9925Z" fill="#333333"/>
<path d="M36.4157 34.6064C36.0899 35.9857 34.6176 37.0255 32.8512 37.0255C31.099 37.0255 29.6368 35.9997 29.2953 34.637L30.426 34.2932V29.6902H35.2763V34.2598L36.4157 34.6064Z" fill="#FFCFC0"/>
<path d="M35.2763 29.6929V30.9539C34.3263 32.1398 32.6876 33.7266 30.426 34.2277V29.6929H35.2763Z" fill="url(#paint0_linear)"/>
<path d="M35.249 15.8311C34.2904 15.8311 33.4323 16.2264 32.8526 16.8471C32.2714 16.2264 31.4147 15.8311 30.4561 15.8311C28.7069 15.8311 27.2891 17.1394 27.2891 18.754C27.2891 20.3686 28.7069 21.677 30.4561 21.677C31.4147 21.677 32.2728 21.2817 32.8526 20.6609C33.4337 21.2817 34.2904 21.677 35.249 21.677C36.9982 21.677 38.416 20.3686 38.416 18.754C38.416 17.1394 36.9982 15.8311 35.249 15.8311Z" fill="#FF80AE"/>
<path d="M35.0926 16.9543C35.0926 17.7408 34.0895 18.3782 32.8511 18.3782C31.6128 18.3782 30.6097 17.7408 30.6097 16.9543" stroke="#EF5090" stroke-width="1.5" stroke-miterlimit="10" stroke-linecap="round" stroke-linejoin="round"/>
<path d="M31.0789 17.8256C30.6872 17.3301 29.9152 17.6294 29.4502 18.0789" stroke="#EF5090" stroke-width="1.5" stroke-miterlimit="10" stroke-linecap="round" stroke-linejoin="round"/>
<path d="M34.7253 17.7365C35.1701 17.33 35.7886 17.4804 36.0971 17.9299" stroke="#EF5090" stroke-width="1.5" stroke-miterlimit="10" stroke-linecap="round" stroke-linejoin="round"/>
<path d="M28.252 17.9302C28.252 17.9302 29.3526 18.0429 29.334 19.1676" stroke="#EF5090" stroke-width="1.5" stroke-miterlimit="10" stroke-linecap="round" stroke-linejoin="round"/>
<path d="M37.4517 17.9299C37.4517 17.9299 36.3511 18.0427 36.3697 19.1673" stroke="#EF5090" stroke-width="1.5" stroke-miterlimit="10" stroke-linecap="round" stroke-linejoin="round"/>
<path d="M27.2375 23.059C27.2375 23.059 26.7137 21.0282 25.5026 21.99C24.29 22.9518 25.1438 26.8812 27.513 26.3592L28.1186 26.1852L27.2375 23.059Z" fill="#FFBBA9"/>
<path d="M38.4663 23.059C38.4663 23.059 38.99 21.0282 40.2026 21.99C41.4151 22.9518 40.5613 26.8812 38.1907 26.3592L37.5852 26.1852L38.4663 23.059Z" fill="#FFBBA9"/>
<path d="M38.7805 21.5157H38.7877L38.7719 21.6298C38.7547 21.8817 38.7202 22.1295 38.6714 22.3717L38.1922 25.9029C38.1663 26.0936 38.1405 26.2885 38.1132 26.4861C38.0917 26.6406 38.0687 26.7965 38.0444 26.9524C37.8248 28.3025 37.0614 29.5149 35.9349 30.3389L34.807 31.1629L34.675 31.2589C34.1914 31.7266 33.5342 31.7642 32.8511 31.7642C32.1681 31.7642 31.5109 31.7266 31.0273 31.2589L30.9024 31.1671L29.7673 30.3375C28.6409 29.5135 27.8775 28.3011 27.6579 26.951C27.6106 26.6545 27.5718 26.3567 27.5316 26.0699C27.5259 26.0129 27.5173 25.9572 27.5101 25.9015L27.0308 22.3703C26.982 22.1281 26.9476 21.8803 26.9304 21.6284L26.9146 21.5143H26.9218C26.9175 21.421 26.9146 21.3278 26.9146 21.2345C26.9146 20.5483 27.038 19.8885 27.2647 19.2775C27.3107 19.1564 27.3609 19.0367 27.414 18.917H38.2854C38.34 19.0353 38.3887 19.155 38.4347 19.2775C38.6614 19.8871 38.7862 20.5469 38.7862 21.2345C38.7877 21.3291 38.7848 21.4224 38.7805 21.5157Z" fill="#FFCFC0"/>
<path d="M25.8111 22.5815C25.5844 22.5815 25.4495 22.7834 25.4064 22.9031C25.382 22.9685 25.4179 23.0395 25.4839 23.0631C25.5514 23.0868 25.626 23.0534 25.6504 22.988C25.6504 22.9866 25.7135 22.8335 25.8111 22.8335C25.8685 22.8335 26.0177 22.8822 26.2617 23.2664C26.177 23.4557 25.8929 24.2073 26.4009 24.9297C26.4267 24.9659 26.4669 24.9853 26.5085 24.9853C26.5343 24.9853 26.5587 24.9784 26.5817 24.9631C26.6405 24.9241 26.6563 24.8448 26.6161 24.7877C26.2875 24.32 26.3506 23.8342 26.431 23.56C26.5788 23.8398 26.751 24.224 26.949 24.7585C26.9677 24.81 27.0179 24.842 27.071 24.842C27.0854 24.842 27.1011 24.8392 27.1155 24.835C27.1829 24.8114 27.2188 24.739 27.1944 24.6736C26.497 22.7987 26.0708 22.5815 25.8111 22.5815Z" fill="#FF8E77"/>
<path d="M40.2973 22.9031C40.2528 22.7834 40.1179 22.5815 39.8926 22.5815C39.6329 22.5815 39.2067 22.7987 38.5107 24.6736C38.4863 24.739 38.5208 24.8114 38.5897 24.835C38.604 24.8406 38.6198 24.842 38.6341 24.842C38.6872 24.842 38.7375 24.81 38.7561 24.7585C38.9541 24.224 39.1263 23.8398 39.2741 23.56C39.3545 23.8342 39.4176 24.32 39.089 24.7877C39.0489 24.8448 39.0632 24.9241 39.1235 24.9631C39.1464 24.9784 39.1708 24.9853 39.1967 24.9853C39.2383 24.9853 39.2785 24.9659 39.3043 24.9297C39.8123 24.2087 39.5281 23.4557 39.4435 23.2664C39.6874 22.8822 39.8381 22.8335 39.8941 22.8335C39.9902 22.8335 40.0533 22.9838 40.0548 22.988C40.0792 23.0534 40.1538 23.0868 40.2212 23.0631C40.2858 23.0409 40.3203 22.9685 40.2973 22.9031Z" fill="#FF8E77"/>
<path d="M34.0852 24.8171H33.0994L32.9803 22.8517C32.976 22.7821 32.9157 22.7292 32.8425 22.7334C32.7708 22.7376 32.7163 22.7974 32.7206 22.867L32.8468 24.9507C32.8511 25.0175 32.9071 25.069 32.976 25.069H34.0838C34.2259 25.069 34.345 25.1441 34.4024 25.2708C34.4598 25.3975 34.4354 25.5325 34.3392 25.6341L33.372 26.6474C33.3233 26.6989 33.3261 26.7782 33.3792 26.8256C33.4036 26.8478 33.4366 26.859 33.4682 26.859C33.5026 26.859 33.5385 26.845 33.5643 26.8186L34.5315 25.8053C34.698 25.6313 34.7396 25.3877 34.642 25.1692C34.5444 24.9521 34.3306 24.8171 34.0852 24.8171Z" fill="#FF8E77"/>
<path d="M30.6413 18.9184C30.5968 19.0409 30.5523 19.1606 30.5021 19.2789C29.3684 22.0529 27.2547 22.9187 27.2547 22.9187L27.5345 26.0769L27.5317 26.0699L26.4124 23.005L26.3535 22.8449C26.2976 22.5554 26.2603 22.2603 26.2416 21.9583L26.2229 21.8233H26.2316C26.2258 21.7119 26.2229 21.6006 26.2229 21.4892C26.2229 20.7153 26.3464 19.972 26.5745 19.2775C26.6147 19.1564 26.6577 19.0367 26.7037 18.917H30.6413V18.9184Z" fill="#333333"/>
<path d="M39.4693 21.8244H39.4779L39.4593 21.9594C39.4406 22.2614 39.4033 22.5565 39.3473 22.846L39.2985 22.9936L38.1132 26.4872L38.1075 26.5053L38.4404 23.9303C36.0024 22.2795 34.3636 20.651 33.2701 19.2814C33.1726 19.1603 33.0807 19.0406 32.9918 18.9209H38.9986C39.0216 18.9807 39.0445 19.0406 39.0661 19.1005C39.0876 19.1603 39.1077 19.2202 39.1278 19.28C39.3545 19.9746 39.4793 20.7178 39.4793 21.4917C39.4793 21.6003 39.4765 21.713 39.4693 21.8244Z" fill="#333333"/>
<g opacity="0.2">
<path opacity="0.2" d="M31.4535 26.3008C31.4119 26.9285 30.779 27.4004 30.04 27.3544C29.301 27.3085 28.7342 26.7629 28.7743 26.1351C28.816 25.5074 29.4488 25.0355 30.1878 25.0815C30.9268 25.1274 31.4936 25.673 31.4535 26.3008Z" fill="#FF8E77"/>
<path opacity="0.2" d="M37.6038 26.678C37.5622 27.3058 36.9308 27.7776 36.1904 27.7317C35.4514 27.6858 34.8845 27.1401 34.9247 26.5138C34.9663 25.886 35.5992 25.4142 36.3382 25.4601C37.0786 25.5047 37.6455 26.0503 37.6038 26.678Z" fill="#FF8E77"/>
</g>
<path d="M28.7557 23.7759C28.7557 23.7759 29.6827 24.5261 31.6917 23.9262" stroke="#231F20" stroke-width="1.5" stroke-miterlimit="10" stroke-linecap="round" stroke-linejoin="round"/>
<path d="M31.1507 21.6032C31.1507 21.6032 29.7602 21.304 28.8318 22.0528" stroke="#231F20" stroke-width="2" stroke-miterlimit="10" stroke-linecap="round" stroke-linejoin="round"/>
<path d="M36.948 23.7759C36.948 23.7759 36.021 24.5261 34.0106 23.9262" stroke="#231F20" stroke-width="1.5" stroke-miterlimit="10" stroke-linecap="round" stroke-linejoin="round"/>
<path d="M34.5516 21.6032C34.5516 21.6032 35.9421 21.304 36.8706 22.0528" stroke="#231F20" stroke-width="2" stroke-miterlimit="10" stroke-linecap="round" stroke-linejoin="round"/>
<path d="M29.4517 27.2249C29.4517 27.2249 30.5337 28.7239 33.0061 28.4247" stroke="#FF8E77" stroke-width="1.5" stroke-miterlimit="10" stroke-linecap="round" stroke-linejoin="round"/>
<path d="M24.4206 41.542V52.6368" stroke="#231F20" stroke-width="1.5" stroke-miterlimit="10" stroke-linecap="round" stroke-linejoin="round"/>
<path d="M41.2831 41.542V52.6368" stroke="#231F20" stroke-width="1.5" stroke-miterlimit="10" stroke-linecap="round" stroke-linejoin="round"/>
<path d="M38.3556 44.604C39.4291 43.5612 39.4291 41.8704 38.3556 40.8276C37.2821 39.7848 35.5416 39.7848 34.4681 40.8276C33.3946 41.8705 33.3946 43.5612 34.4681 44.604C35.5416 45.6468 37.2821 45.6468 38.3556 44.604Z" fill="white"/>
<path d="M38.2754 42.3093C38.2754 43.3059 37.4431 44.1132 36.4156 44.1132C35.3882 44.1132 34.5559 43.3059 34.5559 42.3093" stroke="#231F20" stroke-width="1.5" stroke-miterlimit="10" stroke-linecap="round" stroke-linejoin="round"/>
<path d="M35.8588 41.871C35.8588 42.1758 35.8 42.4222 35.7283 42.4222C35.6565 42.4222 35.5977 42.1758 35.5977 41.871C35.5977 41.5662 35.6565 41.3198 35.7283 41.3198C35.8 41.3198 35.8588 41.5662 35.8588 41.871Z" fill="#231F20"/>
<path d="M37.235 41.8708C37.235 42.1756 37.1761 42.422 37.1044 42.422C37.0326 42.422 36.9738 42.1756 36.9738 41.8708C36.9738 41.5659 37.0326 41.3196 37.1044 41.3196C37.1761 41.3196 37.235 41.5659 37.235 41.8708Z" fill="#231F20"/>
<path d="M22.0313 34.2275C22.0313 34.2275 22.0687 31.3462 25.0018 31.3462C25.0018 31.3462 22.0313 31.31 22.0313 28.4636C22.0313 28.4636 21.994 31.3462 19.0595 31.3462C19.0609 31.3448 22.0313 31.381 22.0313 34.2275Z" fill="#F9D53D"/>
<path d="M48.2127 38.1361C48.2127 38.1361 48.2457 35.5096 50.9205 35.5096C50.9205 35.5096 48.2127 35.4775 48.2127 32.8831C48.2127 32.8831 48.1797 35.5096 45.5049 35.5096C45.5034 35.5082 48.2127 35.5416 48.2127 38.1361Z" fill="#F9D53D"/>
<path d="M43.9623 31.5399C43.9623 31.5399 43.9852 29.6915 45.8679 29.6915C45.8679 29.6915 43.9623 29.6692 43.9623 27.843C43.9623 27.843 43.9393 29.6915 42.0566 29.6915C42.0566 29.6928 43.9623 29.7151 43.9623 31.5399Z" fill="#F9D53D"/>
<path d="M16.6702 40.7223C16.6702 40.7223 16.6932 38.8738 18.5759 38.8738C18.5759 38.8738 16.6702 38.8516 16.6702 37.0254C16.6702 37.0254 16.6473 38.8738 14.7646 38.8738C14.7646 38.8752 16.6702 38.8975 16.6702 40.7223Z" fill="#F9D53D"/>
<g opacity="0.2">
<path opacity="0.2" d="M47.6458 52.6368H45.2365C44.994 45.0426 43.2189 36.985 39.9974 35.7197L40.0404 35.7058L40.0849 35.7197C42.929 36.5799 45.0471 38.9002 45.5838 41.7425L47.6458 52.6368Z" fill="url(#paint1_linear)"/>
<path opacity="0.2" d="M25.636 35.749C22.4561 37.1019 20.7054 45.0984 20.4658 52.6369H18.1683L20.2304 41.7425C20.7614 38.9309 22.8392 36.6301 25.636 35.749Z" fill="url(#paint2_linear)"/>
</g>
<path d="M37.235 34.8553V34.8846C36.8332 36.5813 35.0237 37.8618 32.8512 37.8618C30.6944 37.8618 28.8963 36.6008 28.4759 34.9236V34.8874L29.2953 34.6382C29.6368 36.0009 31.099 37.0267 32.8512 37.0267C34.6176 37.0267 36.0899 35.9856 36.4157 34.6062L37.235 34.8553Z" fill="#039DF2"/>
<path d="M5.03677 52.637H60.6669" stroke="#231F20" stroke-width="1.5" stroke-miterlimit="10" stroke-linecap="round" stroke-linejoin="round"/>
<path d="M51.9408 44.2812C51.4428 44.2812 51.4428 45.0315 51.9408 45.0315C52.4373 45.0301 52.4387 44.2812 51.9408 44.2812Z" fill="white"/>
<path d="M14.6124 32.3623C14.1145 32.3623 14.1145 33.1125 14.6124 33.1125C15.1104 33.1111 15.1118 32.3623 14.6124 32.3623Z" fill="white"/>
<path d="M13.7629 45.1052C13.265 45.1052 13.265 45.8555 13.7629 45.8555C14.2609 45.8555 14.2609 45.1052 13.7629 45.1052Z" fill="white"/>
<path d="M40.811 32.8872C40.3131 32.8872 40.3131 33.6374 40.811 33.6374C41.3089 33.636 41.3089 32.8872 40.811 32.8872Z" fill="white"/>
<path d="M52.5578 31.5371C52.0599 31.5371 52.0599 32.2873 52.5578 32.2873C53.0557 32.2873 53.0557 31.5371 52.5578 31.5371Z" fill="white"/>
<path d="M22.7273 24.3411C22.2294 24.3411 22.2294 25.0913 22.7273 25.0913C23.2252 25.0913 23.2252 24.3411 22.7273 24.3411Z" fill="white"/>
<path d="M27.1327 32.8872C26.6348 32.8872 26.6348 33.6374 27.1327 33.6374C27.6306 33.636 27.6306 32.8872 27.1327 32.8872Z" fill="white"/>
<path d="M10.8252 41.2832C10.5271 41.2832 10.5271 41.7328 10.8252 41.7328C11.1232 41.7328 11.1246 41.2832 10.8252 41.2832Z" fill="white"/>
<path d="M54.7989 37.6099C54.5009 37.6099 54.5009 38.0594 54.7989 38.0594C55.0969 38.0594 55.0969 37.6099 54.7989 37.6099Z" fill="white"/>
<path d="M50.3175 49.6775C50.0194 49.6775 50.0194 50.1271 50.3175 50.1271C50.6155 50.1285 50.6155 49.6775 50.3175 49.6775Z" fill="white"/>
<path d="M43.7481 24.1921C43.4501 24.1921 43.4501 24.6417 43.7481 24.6417C44.0461 24.6417 44.0461 24.1921 43.7481 24.1921Z" fill="white"/>
<path d="M19.0175 26.8159C18.7195 26.8159 18.7195 27.2655 19.0175 27.2655C19.3155 27.2655 19.3155 26.8159 19.0175 26.8159Z" fill="white"/>
<path d="M18.94 35.0613C18.642 35.0613 18.642 35.5109 18.94 35.5109C19.2381 35.5109 19.2395 35.0613 18.94 35.0613Z" fill="white"/>
<path d="M43.0521 34.4614C42.7541 34.4614 42.7541 34.911 43.0521 34.911C43.3502 34.911 43.3502 34.4614 43.0521 34.4614Z" fill="white"/>
<defs>
<linearGradient id="paint0_linear" x1="32.8515" y1="30.3729" x2="32.8515" y2="33.8457" gradientUnits="userSpaceOnUse">
<stop stop-color="#FF8E77"/>
<stop offset="1" stop-color="#FF8E77" stop-opacity="0"/>
</linearGradient>
<linearGradient id="paint1_linear" x1="43.8217" y1="53.7762" x2="43.8217" y2="41.5772" gradientUnits="userSpaceOnUse">
<stop offset="1e-07" stop-color="#231F20"/>
<stop offset="1" stop-opacity="0"/>
</linearGradient>
<linearGradient id="paint2_linear" x1="21.9022" y1="53.7762" x2="21.9022" y2="41.5773" gradientUnits="userSpaceOnUse">
<stop offset="1e-07" stop-color="#231F20"/>
<stop offset="1" stop-opacity="0"/>
</linearGradient>
</defs>
</svg>
